<svg xmlns="http://www.w3.org/2000/svg" version="1.1" enable-background="new 0 0 24.00 24.00" viewBox="0 0 24 24"><path d="m22 24l-5.25-5 0.625 2h-12.875c-1.3807 0-2.5-1.119-2.5-2.5v-15c0-1.3807 1.1193-2.5 2.5-2.5h15c1.381 0 2.5 1.1193 2.5 2.5v20.5zm-10-17.2c-2.6849 0-4.5599 1.1505-4.5599 1.1505 1.0313-0.9219 2.8279-1.4687 2.8279-1.4687l-0.172-0.1563c-1.6872 0.0313-3.2184 1.2031-3.2184 1.2031-1.7188 3.5934-1.6094 6.6874-1.6094 6.6874 1.4063 1.813 3.4844 1.688 3.4844 1.688l0.7031-0.907c-1.25-0.265-2.0312-1.375-2.0312-1.375s1.875 1.278 4.5755 1.278c2.7 0 4.576-1.278 4.576-1.278s-0.782 1.11-2.032 1.375l0.703 0.907s2.079 0.125 3.485-1.688c0 0 0.109-3.094-1.61-6.6874 0 0-1.531-1.1718-3.218-1.2031l-0.172 0.1563s1.797 0.5468 2.828 1.4687c0 0-1.875-1.1505-4.56-1.1505zm-2.0686 3.789c0.6516 0 1.1776 0.571 1.1656 1.268 0 0.697-0.514 1.269-1.1656 1.269-0.64 0-1.1657-0.572-1.1657-1.269s0.5143-1.268 1.1657-1.268zm4.1716 0c0.651 0 1.166 0.571 1.166 1.268s-0.515 1.269-1.166 1.269c-0.64 0-1.166-0.572-1.166-1.269s0.514-1.268 1.166-1.268z" stroke-width="1.3333" fill="#fff"/></svg>
