<svg xmlns="http://www.w3.org/2000/svg" version="1.1" enable-background="new 0 0 24.00 24.00" viewBox="0 0 24 24"><path d="m22 11.5c0-1.4-1.1-2.5-2.5-2.5-0.6 0-1.2 0.2-1.6 0.6-1.5-0.9-3.3-1.5-5.4-1.6l1.1-4 3.4 1c0 1.1 0.9 2 2 2s2-0.9 2-2-0.9-2-2-2c-0.7 0-1.4 0.4-1.7 1l-4-1c-0.3-0.1-0.5 0.1-0.6 0.4l-1.2 4.6c-2 0.1-3.9 0.7-5.4 1.6-0.4-0.4-1-0.6-1.6-0.6-1.4 0-2.5 1.1-2.5 2.5 0 0.9 0.4 1.6 1.1 2.1l-0.1 0.9c0 3.6 4 6.5 9 6.5s9-2.9 9-6.5l-0.1-0.9c0.7-0.5 1.1-1.2 1.1-2.1zm-13 0.3c0.7 0 1.2 0.6 1.2 1.2s-0.5 1.2-1.2 1.2-1.2-0.5-1.2-1.2 0.5-1.2 1.2-1.2zm6.8 5.4c-1.8 1.1-5.8 1.1-7.6 0-0.2-0.2-0.3-0.5-0.1-0.7s0.5-0.3 0.7-0.1c1.2 0.9 5.2 0.9 6.4 0 0.2-0.2 0.5-0.1 0.7 0.1s0.1 0.5-0.1 0.7zm-0.8-3c-0.7 0-1.2-0.6-1.2-1.2 0-0.7 0.6-1.2 1.2-1.2 0.7 0 1.2 0.6 1.2 1.2 0 0.7-0.5 1.2-1.2 1.2z" stroke-width="1.3333" fill="#fff"/></svg>
