<svg xmlns="http://www.w3.org/2000/svg" version="1.1" enable-background="new 0 0 24.00 24.00" viewBox="0 0 24 24"><path stroke-linejoin="round" d="m12 20.447c-1.185 0.003-1.902-0.504-2.5342-0.951-0.4533-0.321-0.8808-0.623-1.3816-0.706-1.153-0.062-1.4897 0.004-2.1179 0.107-0.1056 0-0.2337-0.023-0.2873-0.206-0.1754-0.753-0.2287-0.958-0.3544-0.977-1.3442-0.208-2.1384-0.513-2.2966-0.883-0.0341-0.227 0.0437-0.324 0.1525-0.342 1.0675-0.176 2.0167-0.74 2.8214-1.678 0.6234-0.726 0.9295-1.419 0.9624-1.496 0.1598-0.325 0.1907-0.597 0.0967-0.818-0.1732-0.409-0.7468-0.591-1.3812-0.797-0.3364-0.133-0.8897-0.414-0.816-0.802 0.0537-0.282 0.4275-0.479 0.9503-0.435 0.3414 0.16 0.6485 0.241 0.9126 0.241 0.3284 0 0.4871-0.125 0.5254-0.161-0.1095-1.764-0.2057-3.2904 0.1848-4.1656 1.1685-2.62 3.6471-2.8238 4.5631-2.8255 0.916 0.0017 3.395 0.2055 4.563 2.8255 0.391 0.8752 0.294 2.4016 0.185 4.1656 0.038 0.036 0.197 0.161 0.525 0.161 0.264 0 0.571-0.081 0.913-0.241 0.523-0.044 0.896 0.153 0.95 0.435 0.074 0.388-0.479 0.669-0.816 0.802-0.634 0.206-1.208 0.388-1.381 0.797-0.094 0.221-0.063 0.493 0.097 0.818 0.033 0.077 0.339 0.77 0.962 1.496 0.805 0.938 1.754 1.502 2.822 1.678 0.108 0.018 0.186 0.115 0.152 0.342-0.158 0.37-0.952 0.675-2.297 0.883-0.125 0.019-0.179 0.224-0.354 0.977-0.054 0.183-0.182 0.206-0.287 0.206-0.628-0.103-0.965-0.169-2.118-0.107-0.501 0.083-0.928 0.385-1.382 0.706-0.632 0.447-1.349 0.954-2.534 0.951z" fill="#fff"/></svg>
