<svg xmlns="http://www.w3.org/2000/svg" height="210.49mm" width="210.49mm" version="1.1" viewBox="0 0 210.49002 210.49002"><g transform="translate(8.7819 -177.4)"><path stroke-width=".35278" d="m8.3479 387.39c-9.5126-8.7211-4.7439-25.008-6.4099-37.024 0.12755-7.8482-2.406-14.43 0.090072-21.454-0.33965-24.074-2.7989-48.045-3.5374-72.083-1.4171-13.751-1.8094-27.786-6.2242-40.974 1.514-8.1057-7.1416-25.628 8.4967-20.712 10.233 2.7916 21.192 1.3766 31.727 0.22665 10.698-0.28018 21.13-1.467 31.773-4.2591 17.91-3.9115 36.073-6.7708 54.151-9.814 11.654-3.0886 27.409 4.3763 36.302-3.8964 9.6029 1.9345 13.01 15.074 9.9195 24.022 1.7758 21-1.6416 41.954-3.4011 62.802-1.7094 6.3422-2.8676 14.474 5.6869 7.8651 12.495-5.803 25.743-9.5431 38.702-14.101 13.853-5.0611 28.577-8.7987 43.323-9.2844 8.3509 8.161-14.53 6.4184-19.565 10.393-10.476 4.087-21.198 7.7499-32.041 10.63-10.732 5.7278-22.072 10.155-33.454 14.336-11.405 3.2552-6.6765 19.598-9.626 28.753 2.5487 5.9048-3.6906 19.443-7.5821 8.5042-1.8641-10.171 0.27067-20.749 0.7032-30.603-10.005 2.3324-19.381 7.2163-29.32 10.187-10.402 4.1809-21.203 7.414-32.066 9.7942-10.234 1.8209-29.249 0.98347-26.598-13.945 2.9725-12.936 16.967-19.308 20.482-32.12 4.7334-9.685 18.492-15.703 16.668-27.842-3.6663-10.97-19.121-4.9623-25.459 0.68035-10.669 2.214-9.4232 18.437-13.936 21.592-9.9359-6.4582-12.279-20.03 0.0796-26.175 9.9371-7.6184 21.872-13.617 34.723-11.385 14.529 0.79444 15.768 17.255 13.102 28.136-1.8436 11.275-9.7579 19.598-16.806 28.078-6.8613 5.2123-26.832 21.776-7.695 22.959 17.461-2.1548 33.486-9.7415 49.891-15.571 10.364-2.3066 22.947-5.9978 20.794-19.229 1.9924-22.472 6.213-45.195 2.6057-67.735 3.3006-15.76-17.789-7.3534-26.956-7.601-15.707 1.3675-30.91 5.5826-46.513 7.828-11.669 2.4406-23.291 4.6989-35.191 6.1369-12.539 1.1586-25.12 1.9218-37.661 2.9513-4.4098 8.555-4.5956 19.416-2.5604 29.44 2.6267 21.939 2.9921 44.117 5.0008 66.135 2.3542 9.0837-2.6563 23.881 3.9768 29.401 7.057 3.7244 14.901 2.5429 23.006 2.0109 10.407-1.3649 20.985-0.19843 31.495-0.68268 12.595 0.6901 24.971 2.616 37.32 5.0572 13.671 1.3588 27.384 3.4738 41.147 2.4126 8.9801 2.2569 23.248-4.6492 28.386 1.4498-9.9362 3.7383-21.181 4.7726-31.836 5.3077-13.519-0.45895-27.087 0.2964-40.393-2.4528-12.422-1.4869-25.059-2.9339-37.381-3.4135-17.505 1.1747-35.145 1.9373-52.558 3.6844-4.6809 9.6051-1.2607 22.064-1.1557 32.641 2.4006 3.4531 3.1665 11.523-3.6257 8.9453z"/></g></svg>
