<?xml version="1.0" encoding="UTF-8" standalone="no"?>
<!-- Generator: Adobe Illustrator 18.1.0, SVG Export Plug-In . SVG Version: 6.00 Build 0)  -->

<svg
   xmlns:dc="http://purl.org/dc/elements/1.1/"
   xmlns:cc="http://creativecommons.org/ns#"
   xmlns:rdf="http://www.w3.org/1999/02/22-rdf-syntax-ns#"
   xmlns:svg="http://www.w3.org/2000/svg"
   xmlns="http://www.w3.org/2000/svg"
   xmlns:sodipodi="http://sodipodi.sourceforge.net/DTD/sodipodi-0.dtd"
   xmlns:inkscape="http://www.inkscape.org/namespaces/inkscape"
   version="1.1"
   id="Code"
   x="0px"
   y="0px"
   viewBox="0 0 20 20"
   enable-background="new 0 0 20 20"
   xml:space="preserve"
   sodipodi:docname="code.svg"
   inkscape:version="0.92.1 r"><metadata
     id="metadata9"><rdf:RDF><cc:Work
         rdf:about=""><dc:format>image/svg+xml</dc:format><dc:type
           rdf:resource="http://purl.org/dc/dcmitype/StillImage" /></cc:Work></rdf:RDF></metadata><defs
     id="defs7" /><sodipodi:namedview
     pagecolor="#ffffff"
     bordercolor="#666666"
     borderopacity="1"
     objecttolerance="10"
     gridtolerance="10"
     guidetolerance="10"
     inkscape:pageopacity="0"
     inkscape:pageshadow="2"
     inkscape:window-width="788"
     inkscape:window-height="480"
     id="namedview5"
     showgrid="false"
     inkscape:zoom="11.8"
     inkscape:cx="10"
     inkscape:cy="9.8305085"
     inkscape:window-x="0"
     inkscape:window-y="28"
     inkscape:window-maximized="0"
     inkscape:current-layer="Code" /><path
     d="M5.719,14.75c-0.236,0-0.474-0.083-0.664-0.252L-0.005,10l5.341-4.748C5.748,4.887,6.38,4.922,6.747,5.335  c0.367,0.413,0.33,1.045-0.083,1.412L3.005,10l3.378,3.002c0.413,0.367,0.45,0.999,0.083,1.412  C6.269,14.637,5.994,14.75,5.719,14.75z M14.664,14.748L20.005,10l-5.06-4.498c-0.413-0.367-1.045-0.33-1.411,0.083  c-0.367,0.413-0.33,1.045,0.083,1.412L16.995,10l-3.659,3.252c-0.413,0.367-0.45,0.999-0.083,1.412C13.45,14.887,13.725,15,14,15  C14.236,15,14.474,14.917,14.664,14.748z M9.986,16.165l2-12c0.091-0.545-0.277-1.06-0.822-1.151  c-0.547-0.092-1.061,0.277-1.15,0.822l-2,12c-0.091,0.545,0.277,1.06,0.822,1.151C8.892,16.996,8.946,17,9.001,17  C9.481,17,9.905,16.653,9.986,16.165z"
     id="path2"
     style="fill:#ffffff;fill-opacity:1" /></svg>