<svg xmlns="http://www.w3.org/2000/svg" viewBox="0 0 23 23" version="1.1" enable-background="new 0 0 24.00 24.00"><path fill="#fec200" d="m21.5 23-5.25-5 0.625 2h-12.875c-1.3807 0-2.5-1.119-2.5-2.5v-15c0-1.3807 1.1193-2.5 2.5-2.5h15c1.3807 0 2.5 1.1193 2.5 2.5zm-10-17.2c-2.6849 0-4.5599 1.1505-4.5599 1.1505 1.0313-0.9219 2.8281-1.4687 2.8281-1.4687l-0.1718-0.1563c-1.6876 0.0313-3.2188 1.2031-3.2188 1.2031-1.7188 3.5934-1.6094 6.6874-1.6094 6.6874 1.4063 1.813 3.4844 1.688 3.4844 1.688l0.70313-0.9062c-1.25-0.2656-2.0312-1.375-2.0312-1.375s1.875 1.2776 4.5755 1.2776 4.5755-1.2776 4.5755-1.2776-0.7812 1.1094-2.0312 1.375l0.7031 0.9062s2.0781 0.125 3.4844-1.6875 0.1093-3.0937-1.6094-6.6874c0 0-1.5313-1.1719-3.2188-1.2031l-0.1718 0.15625s1.7968 0.54688 2.8281 1.4688-1.875-1.1505-4.5599-1.1505zm-2.0686 3.7886c0.65147 0 1.1772 0.5714 1.1657 1.2685 0 0.6972-0.5142 1.2686-1.1657 1.2686-0.64 0-1.1657-0.5714-1.1657-1.2686 0-0.6971 0.51429-1.2685 1.1657-1.2685zm4.1714 0c0.6515 0 1.1658 0.5714 1.1658 1.2686 0 0.6971-0.5143 1.2685-1.1658 1.2685-0.64 0-1.1657-0.5714-1.1657-1.2685 0-0.6972 0.5143-1.2686 1.1657-1.2686z" stroke-width="1.3333"/></svg>
