<svg xmlns="http://www.w3.org/2000/svg" height="20" width="20" version="1.1" enable-background="new 0 0 24.00 24.00" viewBox="0 0 19.99999 19.99999"><path stroke-linejoin="round" d="m9.9991 0.24691c-5.5214 0-9.9991 4.4771-9.9991 10.001 0 4.4178 2.865 8.1659 6.8388 9.4884 0.50032 0.0917 0.68265-0.217 0.68265-0.482 0-0.2374-0.0086-0.8663-0.01351-1.7008-2.7816 0.6043-3.3684-1.3405-3.3684-1.3405-0.45489-1.1552-1.1105-1.4628-1.1105-1.4628-0.90795-0.6205 0.06876-0.6079 0.06876-0.6079 1.0037 0.0707 1.5316 1.0306 1.5316 1.0306 0.89199 1.5281 2.3408 1.0869 2.9105 0.8309 0.09085-0.6463 0.3493-1.0869 0.63476-1.3369-2.2204-0.2524-4.5551-1.1103-4.5551-4.9423 0-1.0917 0.38982-1.9844 1.0295-2.6834-0.10314-0.25299-0.44631-1.2697 0.09821-2.6465 0 0 0.8392-0.26888 2.7496 1.0251 0.79744-0.22179 1.6532-0.33272 2.5034-0.33658 0.8496 0.00386 1.7048 0.11479 2.5035 0.33658 1.9092-1.294 2.7471-1.0251 2.7471-1.0251 0.5458 1.3768 0.2026 2.3935 0.1001 2.6465 0.6409 0.69904 1.0277 1.5917 1.0277 2.6834 0 3.8416-2.3384 4.6869-4.5656 4.9345 0.3586 0.3087 0.6784 0.919 0.6784 1.8519 0 1.3368-0.0123 2.4154-0.0123 2.7433 0 0.2674 0.1805 0.5785 0.6876 0.4808 3.9706-1.3249 6.8332-5.0706 6.8332-9.4872 0-5.5235-4.4777-10.001-10.001-10.001z" fill-rule="evenodd" fill="#fff"/></svg>
