<?xml version="1.0" encoding="UTF-8" standalone="no"?>
<!-- Generator: Adobe Illustrator 18.1.0, SVG Export Plug-In . SVG Version: 6.00 Build 0)  -->

<svg
   xmlns:dc="http://purl.org/dc/elements/1.1/"
   xmlns:cc="http://creativecommons.org/ns#"
   xmlns:rdf="http://www.w3.org/1999/02/22-rdf-syntax-ns#"
   xmlns:svg="http://www.w3.org/2000/svg"
   xmlns="http://www.w3.org/2000/svg"
   xmlns:sodipodi="http://sodipodi.sourceforge.net/DTD/sodipodi-0.dtd"
   xmlns:inkscape="http://www.inkscape.org/namespaces/inkscape"
   version="1.1"
   id="Info"
   x="0px"
   y="0px"
   viewBox="0 0 20 20"
   enable-background="new 0 0 20 20"
   xml:space="preserve"
   sodipodi:docname="info.svg"
   inkscape:version="0.92.1 r"><metadata
     id="metadata9"><rdf:RDF><cc:Work
         rdf:about=""><dc:format>image/svg+xml</dc:format><dc:type
           rdf:resource="http://purl.org/dc/dcmitype/StillImage" /></cc:Work></rdf:RDF></metadata><defs
     id="defs7" /><sodipodi:namedview
     pagecolor="#ffffff"
     bordercolor="#666666"
     borderopacity="1"
     objecttolerance="10"
     gridtolerance="10"
     guidetolerance="10"
     inkscape:pageopacity="0"
     inkscape:pageshadow="2"
     inkscape:window-width="788"
     inkscape:window-height="480"
     id="namedview5"
     showgrid="false"
     inkscape:zoom="11.8"
     inkscape:cx="1.9491525"
     inkscape:cy="10"
     inkscape:window-x="0"
     inkscape:window-y="28"
     inkscape:window-maximized="0"
     inkscape:current-layer="Info" /><path
     d="M12.432,0c1.34,0,2.01,0.912,2.01,1.957c0,1.305-1.164,2.512-2.679,2.512c-1.269,0-2.009-0.75-1.974-1.99  C9.789,1.436,10.67,0,12.432,0z M8.309,20c-1.058,0-1.833-0.652-1.093-3.524l1.214-5.092c0.211-0.814,0.246-1.141,0-1.141  c-0.317,0-1.689,0.562-2.502,1.117L5.4,10.48c2.572-2.186,5.531-3.467,6.801-3.467c1.057,0,1.233,1.273,0.705,3.23l-1.391,5.352  c-0.246,0.945-0.141,1.271,0.106,1.271c0.317,0,1.357-0.392,2.379-1.207l0.6,0.814C12.098,19.02,9.365,20,8.309,20z"
     id="path2"
     style="fill:#5d737e;fill-opacity:1" /></svg>