<svg xmlns="http://www.w3.org/2000/svg" version="1.1" enable-background="new 0 0 24.00 24.00" viewBox="0 0 20 20"><path fill="#dc5f00" stroke-linejoin="round" d="m5.8 0.000010037h8.4c3.203 0 5.8 2.5968 5.8 5.8v8.4c0 3.2033-2.5968 5.8-5.8 5.8h-8.4c-3.2032 0-5.8-2.5967-5.8-5.8v-8.4c0-3.2032 2.5968-5.8 5.8-5.8zm-0.2 2c-1.9882 0-3.6 1.6118-3.6 3.6v8.8c0 1.9882 1.6118 3.6 3.6 3.6h8.8c1.9882 0 3.6-1.6118 3.6-3.6v-8.8c0-1.9882-1.6118-3.6-3.6-3.6zm9.65 1.5c0.6904 0 1.25 0.55965 1.25 1.25 0 0.69036-0.5596 1.25-1.25 1.25s-1.25-0.55964-1.25-1.25c0-0.69035 0.5596-1.25 1.25-1.25zm-5.25 1.5c2.7614 0 5 2.2386 5 5s-2.2386 5-5 5-5-2.2386-5-5 2.2386-5 5-5zm0 2c-1.6569 0-3 1.3432-3 3 0 1.6569 1.3431 3 3 3s3-1.3431 3-3c0-1.6568-1.3431-3-3-3z" /></svg>
