<svg xmlns="http://www.w3.org/2000/svg" version="1.1" enable-background="new 0 0 24.00 24.00" viewBox="0 0 18 18"><path fill="#e27100" stroke-linejoin="round" d="m9 17.447c-1.1852 0.003-1.9019-0.5037-2.5342-0.9511-0.45328-0.3202-0.88077-0.6225-1.3816-0.7058-1.153-0.0615-1.4896 0.0046-2.1179 0.1075-0.10557 0-0.23374-0.0234-0.28724-0.2059-0.17541-0.7535-0.22872-0.9584-0.3544-0.9778-1.3442-0.2073-2.1385-0.513-2.2967-0.8829-0.0341-0.227 0.04376-0.3238 0.15258-0.3419 1.0675-0.1757 2.0167-0.74 2.8214-1.6776 0.62334-0.7258 0.92944-1.4193 0.96236-1.4959 0.15983-0.3251 0.19069-0.597 0.09673-0.8184-0.17321-0.4085-0.74682-0.5905-1.3812-0.7973-0.33644-0.1329-0.88975-0.4137-0.81604-0.8012 0.05369-0.2826 0.42748-0.4794 0.95036-0.4354 0.34136 0.16 0.64851 0.241 0.91253 0.241 0.32846 0 0.4871-0.125 0.52546-0.1606-0.10953-1.7644-0.20569-3.2908 0.18473-4.166 1.1685-2.6199 3.6466-2.8237 4.5631-2.8254 0.9165 0.00171 3.3946 0.2055 4.5631 2.8254 0.3905 0.87527 0.2943 2.4016 0.1848 4.166 0.0383 0.0356 0.197 0.1606 0.5254 0.1606 0.264 0 0.5712-0.081 0.9126-0.241 0.5228-0.044 0.8966 0.1528 0.9503 0.4354 0.0737 0.3875-0.4796 0.6683-0.816 0.8012-0.6344 0.2068-1.208 0.3888-1.3812 0.7973-0.094 0.2214-0.0631 0.4933 0.0967 0.8184 0.0329 0.0766 0.339 0.7701 0.9624 1.4959 0.8047 0.9376 1.7539 1.5019 2.8214 1.6776 0.1088 0.0181 0.1866 0.1149 0.1525 0.3419-0.1582 0.3699-0.9524 0.6756-2.2967 0.8829-0.1256 0.0194-0.1789 0.2243-0.3543 0.9778-0.0536 0.1825-0.1817 0.2059-0.2873 0.2059-0.6282-0.1029-0.9649-0.169-2.1179-0.1075-0.5008 0.0833-0.9283 0.3856-1.3816 0.7058-0.6323 0.4474-1.349 0.9541-2.5342 0.9511z"/></svg>
