<svg xmlns="http://www.w3.org/2000/svg" height="24" width="24" version="1.1" enable-background="new 0 0 24.00 24.00" viewBox="0 0 24.000002 24"><path fill="#f7ad00" stroke-linejoin="round" d="m20.143 7.2857c1.1834 0 2.1428 0.95939 2.1428 2.1429 0 1.1834-0.9594 2.1428-2.1428 2.1428-1.1835 0-2.1429-0.9594-2.1429-2.1428 0-1.1835 0.9594-2.1429 2.1429-2.1429zm-17.143-0.8571c1.6568 0 3 1.3432 3 3l-0.01631 0.31473 6.3492 3.2926c0.5031-0.3812 1.1301-0.6073 1.81-0.6073l2.1428-3c0-2.1302 1.7269-3.8571 3.8572-3.8571 2.1302 0 3.8571 1.7269 3.8571 3.8571s-1.7269 3.8571-3.8571 3.8571l-3 2.1429c0 1.6568-1.3432 3-3 3-1.6569 0-3-1.3432-3-3 0-0.0376 0.0006-0.075 0.002-0.1122l-6.5066-3.3743c-0.471 0.3077-1.0338 0.4865-1.6383 0.4865-1.6569 0-3-1.3432-3-3s1.3431-3 3-3zm12.033 8.0076c0.6326 0.3224 0.8842 1.0966 0.5618 1.7293-0.3223 0.6327-1.0966 0.8842-1.7292 0.5619l-1.838-0.9532c0.1653 1.0191 1.0494 1.7972 2.1152 1.7972 1.1834 0 2.1428-0.9594 2.1428-2.1428 0-1.1835-0.9594-2.1429-2.1428-2.1429-0.3312 0-0.6448 0.0751-0.9248 0.2093zm-12.033-7.1503c-1.1835 0-2.1429 0.95939-2.1429 2.1429 0 1.1834 0.95939 2.1428 2.1429 2.1428 0.24468 0 0.47979-0.041 0.69882-0.1165l-1.4227-0.7378c-0.63268-0.3224-0.88425-1.0966-0.56188-1.7293 0.32237-0.63269 1.0966-0.88425 1.7293-0.56188l1.6958 0.87944c-0.06382-1.1262-0.99725-2.0197-2.1394-2.0197zm17.143-0.8571c-1.6569 0-3 1.3431-3 3 0 1.6568 1.3431 3 3 3 1.6568 0 3-1.3432 3-3 0-1.6569-1.3432-3-3-3z" stroke-width=".2"/></svg>
